<svg width="157" height="78" viewBox="0 0 157 78" fill="none" xmlns="http://www.w3.org/2000/svg">
<path d="M4.72408 60.3079C4.30269 60.3079 3.94783 60.1638 3.6595 59.8755C3.37118 59.5871 3.22702 59.2323 3.22702 58.8109V38.2844C3.22702 37.863 3.37118 37.5081 3.6595 37.2198C3.94783 36.9093 4.30269 36.7541 4.72408 36.7541C5.14548 36.7541 5.50034 36.9093 5.78867 37.2198C6.09917 37.5081 6.25442 37.863 6.25442 38.2844V47.1337H18.8631V38.2844C18.8631 37.863 19.0072 37.5081 19.2956 37.2198C19.5839 36.9093 19.9387 36.7541 20.3601 36.7541C20.7815 36.7541 21.1364 36.9093 21.4247 37.2198C21.7352 37.5081 21.8905 37.863 21.8905 38.2844V58.8109C21.8905 59.2323 21.7352 59.5871 21.4247 59.8755C21.1364 60.1638 20.7815 60.3079 20.3601 60.3079C19.9387 60.3079 19.5839 60.1638 19.2956 59.8755C19.0072 59.5871 18.8631 59.2323 18.8631 58.8109V49.9615H6.25442V58.8109C6.25442 59.2323 6.09917 59.5871 5.78867 59.8755C5.50034 60.1638 5.14548 60.3079 4.72408 60.3079ZM32.0666 60.4743C31.0908 60.4743 30.1814 60.2747 29.3387 59.8755C28.518 59.4762 27.8638 58.8996 27.3758 58.1455C26.8879 57.3693 26.6439 56.4821 26.6439 55.4841C26.6439 53.8428 27.2871 52.5343 28.5735 51.5584C29.882 50.5825 31.7894 50.0946 34.2956 50.0946H38.3211V49.8285C38.3211 48.3647 37.9551 47.3112 37.2232 46.668C36.5135 46.0248 35.3935 45.7032 33.8631 45.7032C33.0203 45.7032 32.2663 45.7697 31.6009 45.9028C30.9577 46.0359 30.2369 46.2355 29.4385 46.5016C29.261 46.546 29.1169 46.5682 29.006 46.5682C28.6733 46.5682 28.385 46.4462 28.141 46.2022C27.897 45.9583 27.775 45.6588 27.775 45.304C27.775 44.7052 28.0634 44.2838 28.64 44.0398C30.5252 43.2414 32.4437 42.8421 34.3954 42.8421C35.9258 42.8421 37.2121 43.1526 38.2545 43.7736C39.3191 44.3947 40.0954 45.2042 40.5833 46.2022C41.0934 47.1781 41.3485 48.2427 41.3485 49.396V58.8109C41.3485 59.2323 41.1932 59.5871 40.8827 59.8755C40.5944 60.1638 40.2395 60.3079 39.8181 60.3079C39.3967 60.3079 39.0419 60.1638 38.7536 59.8755C38.4652 59.5871 38.3211 59.2323 38.3211 58.8109V57.9459C36.6798 59.6315 34.595 60.4743 32.0666 60.4743ZM33.1978 57.8128C34.1736 57.8128 35.1162 57.58 36.0256 57.1142C36.9349 56.6263 37.7001 56.0274 38.3211 55.3177V52.5232H34.6948C31.3458 52.5232 29.6713 53.3992 29.6713 55.1514C29.6713 55.9498 29.9375 56.593 30.4698 57.0809C31.0242 57.5689 31.9336 57.8128 33.1978 57.8128ZM47.9197 60.3079C47.4983 60.3079 47.1435 60.1638 46.8551 59.8755C46.5668 59.5871 46.4227 59.2323 46.4227 58.8109V44.5388C46.4227 44.1174 46.5668 43.7626 46.8551 43.4742C47.1435 43.1637 47.4983 43.0085 47.9197 43.0085C48.3411 43.0085 48.696 43.1637 48.9843 43.4742C49.2948 43.7626 49.4501 44.1174 49.4501 44.5388V45.9693C51.0026 43.8845 52.7436 42.8421 54.6732 42.8421H54.8395C55.2609 42.8421 55.6047 42.9863 55.8708 43.2746C56.1591 43.5629 56.3033 43.9178 56.3033 44.3392C56.3033 44.7606 56.1591 45.1044 55.8708 45.3705C55.5825 45.6367 55.2165 45.7697 54.773 45.7697H54.6066C53.542 45.7697 52.5662 46.0359 51.679 46.5682C50.7919 47.0783 50.0489 47.788 49.4501 48.6973V58.8109C49.4501 59.2323 49.2948 59.5871 48.9843 59.8755C48.696 60.1638 48.3411 60.3079 47.9197 60.3079ZM65.1797 60.3079C64.7805 60.3079 64.4145 60.197 64.0818 59.9753C63.7491 59.7313 63.5052 59.4319 63.3499 59.077L57.5613 45.2374C57.4504 44.9713 57.3949 44.7384 57.3949 44.5388C57.3949 44.1174 57.5391 43.7626 57.8274 43.4742C58.1157 43.1637 58.4706 43.0085 58.892 43.0085C59.1803 43.0085 59.4465 43.0972 59.6904 43.2746C59.9566 43.4299 60.1451 43.6295 60.256 43.8735L65.346 56.7815L70.4361 43.8735C70.547 43.6295 70.7244 43.4299 70.9683 43.2746C71.2345 43.0972 71.5117 43.0085 71.8001 43.0085C72.2215 43.0085 72.5763 43.1637 72.8646 43.4742C73.153 43.7626 73.2971 44.1174 73.2971 44.5388C73.2971 44.7384 73.2417 44.9713 73.1308 45.2374L67.3421 59.077C67.1869 59.4319 66.9429 59.7313 66.6102 59.9753C66.2775 60.197 65.9116 60.3079 65.5124 60.3079H65.1797ZM84.1571 60.4743C81.4513 60.4743 79.3332 59.7091 77.8029 58.1788C76.2947 56.6263 75.5406 54.4527 75.5406 51.6582C75.5406 50.0835 75.829 48.6308 76.4056 47.3001C76.9823 45.9693 77.8694 44.8937 79.0671 44.0731C80.2647 43.2524 81.7396 42.8421 83.4917 42.8421C85.133 42.8421 86.5524 43.2303 87.7501 44.0065C88.9477 44.7606 89.8571 45.7808 90.4781 47.0672C91.0991 48.3314 91.4096 49.7176 91.4096 51.2257C91.4096 51.6471 91.2654 52.002 90.9771 52.2903C90.7109 52.5786 90.345 52.7228 89.8792 52.7228H78.6013C78.7787 54.2753 79.3554 55.4841 80.3313 56.349C81.3071 57.214 82.6711 57.6465 84.4233 57.6465C85.3548 57.6465 86.1643 57.5578 86.8518 57.3803C87.5616 57.2029 88.2491 56.9479 88.9145 56.6152C89.0919 56.5265 89.2915 56.4821 89.5133 56.4821C89.8682 56.4821 90.1787 56.6041 90.4448 56.848C90.7109 57.092 90.844 57.4025 90.844 57.7796C90.844 58.2675 90.5557 58.6778 89.979 59.0105C89.1141 59.4984 88.2602 59.8644 87.4174 60.1083C86.5746 60.3523 85.4878 60.4743 84.1571 60.4743ZM88.4154 50.2609C88.3489 49.1742 88.0606 48.2649 87.5505 47.533C87.0625 46.8011 86.4526 46.2688 85.7207 45.9361C84.9888 45.5812 84.2458 45.4038 83.4917 45.4038C82.7377 45.4038 81.9947 45.5812 81.2628 45.9361C80.5309 46.2688 79.921 46.8011 79.433 47.533C78.9451 48.2649 78.6679 49.1742 78.6013 50.2609H88.4154ZM103 60.4743C100.295 60.4743 98.1765 59.7091 96.6462 58.1788C95.138 56.6263 94.384 54.4527 94.384 51.6582C94.384 50.0835 94.6723 48.6308 95.2489 47.3001C95.8256 45.9693 96.7127 44.8937 97.9104 44.0731C99.1081 43.2524 100.583 42.8421 102.335 42.8421C103.976 42.8421 105.396 43.2303 106.593 44.0065C107.791 44.7606 108.7 45.7808 109.321 47.0672C109.942 48.3314 110.253 49.7176 110.253 51.2257C110.253 51.6471 110.109 52.002 109.82 52.2903C109.554 52.5786 109.188 52.7228 108.723 52.7228H97.4446C97.6221 54.2753 98.1987 55.4841 99.1746 56.349C100.15 57.214 101.514 57.6465 103.267 57.6465C104.198 57.6465 105.008 57.5578 105.695 57.3803C106.405 57.2029 107.092 56.9479 107.758 56.6152C107.935 56.5265 108.135 56.4821 108.357 56.4821C108.711 56.4821 109.022 56.6041 109.288 56.848C109.554 57.092 109.687 57.4025 109.687 57.7796C109.687 58.2675 109.399 58.6778 108.822 59.0105C107.957 59.4984 107.104 59.8644 106.261 60.1083C105.418 60.3523 104.331 60.4743 103 60.4743ZM107.259 50.2609C107.192 49.1742 106.904 48.2649 106.394 47.533C105.906 46.8011 105.296 46.2688 104.564 45.9361C103.832 45.5812 103.089 45.4038 102.335 45.4038C101.581 45.4038 100.838 45.5812 100.106 45.9361C99.3742 46.2688 98.7643 46.8011 98.2763 47.533C97.7884 48.2649 97.5112 49.1742 97.4446 50.2609H107.259ZM121.844 60.4743C119.138 60.4743 117.02 59.7091 115.49 58.1788C113.981 56.6263 113.227 54.4527 113.227 51.6582C113.227 50.0835 113.516 48.6308 114.092 47.3001C114.669 45.9693 115.556 44.8937 116.754 44.0731C117.951 43.2524 119.426 42.8421 121.178 42.8421C122.82 42.8421 124.239 43.2303 125.437 44.0065C126.634 44.7606 127.544 45.7808 128.165 47.0672C128.786 48.3314 129.096 49.7176 129.096 51.2257C129.096 51.6471 128.952 52.002 128.664 52.2903C128.398 52.5786 128.032 52.7228 127.566 52.7228H116.288C116.465 54.2753 117.042 55.4841 118.018 56.349C118.994 57.214 120.358 57.6465 122.11 57.6465C123.041 57.6465 123.851 57.5578 124.538 57.3803C125.248 57.2029 125.936 56.9479 126.601 56.6152C126.779 56.5265 126.978 56.4821 127.2 56.4821C127.555 56.4821 127.865 56.6041 128.131 56.848C128.398 57.092 128.531 57.4025 128.531 57.7796C128.531 58.2675 128.242 58.6778 127.666 59.0105C126.801 59.4984 125.947 59.8644 125.104 60.1083C124.261 60.3523 123.174 60.4743 121.844 60.4743ZM126.102 50.2609C126.036 49.1742 125.747 48.2649 125.237 47.533C124.749 46.8011 124.139 46.2688 123.407 45.9361C122.675 45.5812 121.932 45.4038 121.178 45.4038C120.424 45.4038 119.681 45.5812 118.949 45.9361C118.218 46.2688 117.608 46.8011 117.12 47.533C116.632 48.2649 116.354 49.1742 116.288 50.2609H126.102Z" fill="white"/>
<g filter="url(#filter0_d_531_1247)">
<path d="M124.482 20.8114C123.456 21.8875 116.559 22.1971 113.035 23.598C109.265 25.0961 108.149 27.4162 107.291 28.4467C104.953 32.2138 104.794 38.1977 105.007 40.7188C113.502 40.8841 118.291 37.7585 119.623 36.1751C123.34 31.9599 124.411 24.1763 124.482 20.8114Z" fill="#487D4B"/>
<path d="M124.43 20.9979C123.609 22.0199 122.325 23.5296 120.678 25.3453M105.136 40.2505C107.072 38.6595 108.944 37.0173 110.715 35.3863M106.404 30.9171C106.424 33.4662 107.371 38.8687 111.001 40.0856M110.161 36.3549C112.013 37.2807 115.81 39.0176 116.18 38.5592M110.715 35.3863C110.346 34.5896 108.329 31.2746 109.641 26.3503M110.715 35.3863C111.398 34.7573 112.066 34.13 112.718 33.508M112.718 33.508C114.579 34.4035 118.568 36.1103 119.632 35.7731M112.718 33.508C112.923 33.3118 113.127 33.1161 113.329 32.9211M113.329 32.9211C112.747 31.5592 112.064 27.762 113.981 23.4683M113.329 32.9211C114.024 32.2501 114.698 31.5866 115.35 30.9352M115.35 30.9352C115.634 31.0232 121.451 32.3098 121.971 32.2589M115.35 30.9352C116.242 30.0428 117.091 29.1731 117.889 28.3378M116.176 29.6142C116.33 27.6547 116.716 23.5662 117.026 22.888M117.889 28.3378C118.388 28.3875 121.965 29.5936 123.029 28.5565M117.889 28.3378C118.904 27.2768 119.838 26.2712 120.678 25.3453M120.678 25.3453C121.648 25.3979 123.648 25.4699 123.887 25.3372M120.678 25.3453L120.684 22.2839" stroke="#3F5542" stroke-width="0.1"/>
</g>
<path d="M6.09961 76.2851C8.95354 74.853 41.0603 59.0996 53.903 67.6924C59.8487 71.9887 64.6052 79.7221 36.0659 76.2851C28.9311 74.3756 25.9344 69.9836 71.0266 67.6924L133.1 65.5444" stroke="#E6E6E6"/>
<defs>
<filter id="filter0_d_531_1247" x="86.9385" y="0.811523" width="69.5439" height="69.9131" filterUnits="userSpaceOnUse" color-interpolation-filters="sRGB">
<feFlood flood-opacity="0" result="BackgroundImageFix"/>
<feColorMatrix in="SourceAlpha" type="matrix" values="0 0 0 0 0 0 0 0 0 0 0 0 0 0 0 0 0 0 127 0" result="hardAlpha"/>
<feOffset dx="7" dy="5"/>
<feGaussianBlur stdDeviation="12.5"/>
<feComposite in2="hardAlpha" operator="out"/>
<feColorMatrix type="matrix" values="0 0 0 0 0 0 0 0 0 0 0 0 0 0 0 0 0 0 0.25 0"/>
<feBlend mode="normal" in2="BackgroundImageFix" result="effect1_dropShadow_531_1247"/>
<feBlend mode="normal" in="SourceGraphic" in2="effect1_dropShadow_531_1247" result="shape"/>
</filter>
</defs>
</svg>
